<?xml version="1.0" standalone="no"?>
<!DOCTYPE svg PUBLIC "-//W3C//DTD SVG 20010904//EN"
 "http://www.w3.org/TR/2001/REC-SVG-20010904/DTD/svg10.dtd">
<svg version="1.0" xmlns="http://www.w3.org/2000/svg"
 width="800.000000pt" height="800.000000pt" viewBox="0 0 800.000000 800.000000"
 preserveAspectRatio="xMidYMid meet">
<metadata>
Created by potrace 1.11, written by Peter Selinger 2001-2013
</metadata>
<g transform="translate(0.000000,800.000000) scale(0.100000,-0.100000)"
fill="#000000" stroke="none">
<path d="M2139 7184 c-15 -5 -71 -160 -85 -239 -28 -148 -33 -202 -29 -325 3
-117 6 -149 19 -205 1 -5 8 -37 15 -70 7 -33 18 -66 23 -72 11 -14 0 -36 -47
-88 -47 -52 -123 -170 -169 -262 -71 -142 -117 -300 -133 -456 -12 -128 -6
-382 13 -537 13 -106 49 -271 73 -341 l19 -56 -251 0 c-230 1 -448 -5 -632
-19 -78 -5 -396 -41 -435 -48 -14 -3 -43 -7 -65 -11 -22 -3 -65 -10 -95 -15
-116 -21 -117 -21 -106 -39 4 -5 16 -8 29 -6 12 3 56 11 97 19 41 9 100 18
130 22 30 3 57 7 60 9 3 2 35 6 70 10 36 3 76 8 90 10 43 6 203 19 375 30 125
9 672 14 717 7 16 -3 32 -12 35 -21 6 -16 43 -102 48 -111 2 -3 -11 -6 -28 -6
-54 -1 -309 -15 -357 -19 -25 -2 -70 -7 -100 -10 -30 -3 -80 -8 -110 -11 -30
-3 -66 -7 -80 -9 -14 -2 -54 -7 -90 -11 -36 -4 -67 -8 -70 -9 -3 -1 -30 -5
-60 -9 -197 -27 -585 -106 -670 -136 -14 -4 -37 -11 -52 -14 -17 -4 -25 -11
-22 -19 3 -10 39 -4 155 25 83 20 162 39 177 42 15 3 72 14 127 24 97 19 133
26 212 38 21 3 45 7 53 9 8 2 42 7 75 10 33 4 67 8 75 10 8 2 47 7 85 10 39 4
77 8 85 10 8 2 49 7 90 10 41 3 98 8 125 10 55 5 196 13 317 20 l76 3 63 -96
c175 -269 486 -479 864 -583 94 -26 276 -67 328 -74 23 -3 51 -8 62 -9 11 -2
47 -7 80 -11 l60 -7 -75 -76 c-80 -81 -147 -196 -171 -294 -13 -56 -29 -68
-135 -102 -114 -36 -195 -48 -289 -42 -219 13 -367 106 -508 321 -101 155
-177 226 -305 290 -86 42 -124 50 -221 48 -76 -1 -122 -21 -129 -56 -5 -25 53
-82 120 -117 167 -88 249 -175 363 -385 211 -389 536 -523 1040 -431 l30 5 0
-256 c0 -288 7 -264 -81 -277 -21 -4 -46 -8 -54 -11 -8 -2 -27 -7 -42 -10 -62
-12 -82 -16 -166 -39 -351 -96 -596 -216 -725 -356 -77 -83 -101 -138 -101
-230 0 -97 26 -152 114 -242 103 -105 259 -194 475 -271 107 -39 328 -101 390
-111 20 -4 40 -8 44 -10 3 -3 25 -7 47 -10 22 -4 51 -9 64 -11 112 -24 234
-41 345 -50 44 -4 94 -8 110 -11 138 -19 680 -26 870 -11 185 14 305 26 413
42 17 3 44 7 60 9 95 14 285 53 399 82 434 112 726 274 823 456 83 155 20 323
-174 460 -197 139 -534 260 -921 332 -11 2 -38 6 -60 10 l-40 8 -1 396 c0 219
-3 424 -8 457 -23 183 -94 327 -219 440 -34 31 -55 56 -47 54 8 -1 38 1 65 5
28 3 68 9 90 12 22 2 65 9 95 14 30 6 69 13 85 15 247 44 522 148 697 265 146
98 307 283 372 428 l19 42 101 -5 c196 -9 484 -31 536 -40 14 -2 52 -7 84 -10
33 -3 73 -8 90 -10 92 -13 193 -28 211 -31 11 -2 34 -6 50 -8 100 -13 422 -82
537 -115 54 -16 68 -17 72 -6 5 15 -31 27 -189 65 -90 21 -304 66 -360 76 -16
2 -55 9 -85 14 -30 5 -75 12 -100 15 -46 6 -113 15 -140 20 -8 1 -46 6 -83 10
-37 3 -76 8 -86 10 -9 2 -59 6 -111 10 -52 4 -108 8 -124 10 -28 4 -213 15
-323 19 -29 1 -55 5 -58 8 -3 3 5 32 17 66 21 59 22 60 62 64 53 5 663 1 741
-6 33 -2 100 -7 149 -10 49 -4 101 -8 115 -10 14 -3 58 -7 96 -11 64 -5 129
-14 240 -30 51 -8 203 -34 233 -41 15 -3 22 0 22 10 0 16 -14 22 -75 31 -22 3
-65 10 -95 15 -82 14 -257 39 -320 45 -30 3 -84 8 -120 11 -36 3 -83 7 -105 9
-115 12 -372 19 -627 18 -159 0 -288 1 -288 3 0 1 4 13 9 27 13 33 49 255 58
357 5 47 8 198 8 335 0 276 -12 358 -77 544 -51 147 -164 339 -260 442 -68 73
-69 75 -59 101 5 14 12 40 15 59 3 19 9 52 13 74 4 22 7 99 8 170 0 118 -3
160 -21 265 -9 54 -53 201 -72 240 l-17 35 -73 1 c-93 2 -251 -32 -357 -76
-132 -55 -299 -144 -450 -238 l-50 -32 -150 30 c-82 16 -177 32 -210 35 -33 3
-78 8 -100 11 -98 14 -482 20 -580 9 -22 -2 -69 -7 -105 -10 -86 -8 -187 -22
-235 -31 -11 -3 -35 -7 -54 -10 -46 -8 -146 -30 -198 -45 -40 -11 -44 -10
-104 27 -114 72 -134 84 -214 128 -161 89 -344 165 -441 182 -16 3 -45 9 -64
13 -39 9 -156 12 -181 5z m1889 -4058 c8 -13 11 -845 3 -847 -3 -1 -24 -2 -47
-3 l-41 -1 1 423 c1 395 2 424 19 437 19 14 53 10 65 -9z m-468 -470 c0 -306
-3 -395 -12 -398 -7 -2 -32 -6 -55 -7 l-43 -3 0 275 c0 292 11 397 51 465 22
38 41 61 52 62 4 0 7 -177 7 -394z m912 323 c47 -90 58 -179 58 -469 0 -241
-1 -258 -17 -255 -10 2 -35 4 -55 4 l-38 1 0 391 c0 294 3 390 12 387 6 -2 24
-29 40 -59z"/>
<path d="M1617 3520 c-18 -48 -57 -202 -57 -222 0 -51 56 -87 96 -60 19 12 31
46 28 72 -9 55 -62 224 -67 210z"/>
</g>
</svg>
